<?xml version="1.0" encoding="UTF-8" standalone="no"?><!DOCTYPE svg PUBLIC "-//W3C//DTD SVG 1.1//EN" "http://www.w3.org/Graphics/SVG/1.1/DTD/svg11.dtd"><svg width="100%" height="100%" viewBox="0 0 32 32" version="1.1" xmlns="http://www.w3.org/2000/svg" xmlns:xlink="http://www.w3.org/1999/xlink" xml:space="preserve" xmlns:serif="http://www.serif.com/" style="fill-rule:evenodd;clip-rule:evenodd;stroke-linejoin:round;stroke-miterlimit:2;"><path d="M-0.122,16c-0,8.837 7.163,16 16,16c8.836,0 16,-7.163 16,-16c-0,-8.837 -7.164,-16 -16,-16c-8.837,0 -16,7.163 -16,16Z" style="fill:url(#_Radial1);fill-rule:nonzero;"/><path d="M6.889,15.144c0.217,-0 0.458,-0.096 0.722,-0.288c0.264,-0.191 0.512,-0.447 0.745,-0.768c0.233,-0.321 0.43,-0.697 0.59,-1.126c0.161,-0.43 0.241,-0.883 0.241,-1.359c0,-0.818 -0.269,-1.227 -0.807,-1.227c-0.27,-0 -0.539,0.088 -0.808,0.264c-0.269,0.176 -0.515,0.427 -0.738,0.753c-0.222,0.326 -0.403,0.717 -0.543,1.173c-0.14,0.455 -0.21,0.963 -0.21,1.522c0,0.3 0.065,0.551 0.194,0.753c0.13,0.202 0.334,0.303 0.614,0.303m-2.951,3.478c0,-0.124 0.067,-0.186 0.202,-0.186c0.083,0 0.16,0.013 0.233,0.039c0.072,0.026 0.202,0.039 0.388,0.039c0.342,-0 0.676,-0.096 1.002,-0.288c0.326,-0.191 0.629,-0.435 0.908,-0.73c0.28,-0.295 0.526,-0.621 0.738,-0.978c0.212,-0.357 0.375,-0.701 0.489,-1.033c-0.114,0.135 -0.264,0.254 -0.45,0.358c-0.156,0.082 -0.35,0.16 -0.583,0.232c-0.233,0.073 -0.51,0.109 -0.83,0.109c-0.29,0 -0.565,-0.052 -0.824,-0.155c-0.258,-0.104 -0.486,-0.249 -0.683,-0.435c-0.197,-0.186 -0.352,-0.409 -0.466,-0.668c-0.114,-0.258 -0.171,-0.548 -0.171,-0.869c0,-0.632 0.119,-1.23 0.358,-1.794c0.238,-0.564 0.556,-1.056 0.955,-1.475c0.398,-0.42 0.851,-0.751 1.359,-0.994c0.507,-0.244 1.03,-0.365 1.568,-0.365c0.911,-0 1.628,0.251 2.151,0.753c0.523,0.502 0.784,1.302 0.784,2.399c0,0.425 -0.054,0.885 -0.163,1.382c-0.109,0.497 -0.272,0.994 -0.489,1.491c-0.217,0.497 -0.484,0.979 -0.8,1.445c-0.316,0.465 -0.675,0.877 -1.079,1.234c-0.404,0.357 -0.854,0.642 -1.351,0.854c-0.497,0.212 -1.036,0.319 -1.615,0.319c-0.239,-0 -0.456,-0.024 -0.653,-0.07c-0.196,-0.047 -0.367,-0.104 -0.512,-0.171c-0.145,-0.067 -0.259,-0.142 -0.342,-0.225c-0.083,-0.083 -0.124,-0.156 -0.124,-0.218" style="fill:#fdfdff;fill-rule:nonzero;"/><path d="M14.346,14.311c0.217,-0 0.458,-0.096 0.722,-0.287c0.264,-0.192 0.512,-0.448 0.745,-0.769c0.233,-0.321 0.43,-0.696 0.591,-1.126c0.16,-0.43 0.24,-0.883 0.24,-1.359c0,-0.818 -0.269,-1.227 -0.807,-1.227c-0.27,0 -0.539,0.088 -0.808,0.264c-0.269,0.176 -0.515,0.427 -0.738,0.753c-0.222,0.327 -0.403,0.717 -0.543,1.173c-0.14,0.456 -0.21,0.963 -0.21,1.522c0,0.3 0.065,0.551 0.194,0.753c0.13,0.202 0.334,0.303 0.614,0.303m-2.951,3.479c0,-0.125 0.067,-0.187 0.202,-0.187c0.083,0 0.16,0.013 0.233,0.039c0.072,0.026 0.202,0.039 0.388,0.039c0.342,-0 0.676,-0.096 1.002,-0.287c0.326,-0.192 0.629,-0.435 0.908,-0.73c0.28,-0.295 0.526,-0.621 0.738,-0.979c0.212,-0.357 0.375,-0.701 0.489,-1.032c-0.114,0.134 -0.264,0.253 -0.45,0.357c-0.155,0.083 -0.349,0.16 -0.582,0.233c-0.233,0.072 -0.511,0.108 -0.831,0.108c-0.29,0 -0.565,-0.051 -0.823,-0.155c-0.259,-0.103 -0.487,-0.248 -0.684,-0.435c-0.197,-0.186 -0.352,-0.409 -0.466,-0.668c-0.114,-0.258 -0.17,-0.548 -0.17,-0.869c-0,-0.632 0.118,-1.23 0.357,-1.794c0.238,-0.564 0.556,-1.056 0.955,-1.475c0.398,-0.42 0.851,-0.751 1.359,-0.994c0.507,-0.243 1.03,-0.365 1.568,-0.365c0.911,-0 1.628,0.251 2.151,0.753c0.523,0.502 0.784,1.302 0.784,2.399c0,0.425 -0.054,0.886 -0.163,1.383c-0.108,0.497 -0.271,0.993 -0.489,1.49c-0.217,0.497 -0.484,0.979 -0.8,1.445c-0.316,0.466 -0.675,0.877 -1.079,1.234c-0.404,0.358 -0.854,0.642 -1.351,0.855c-0.497,0.212 -1.036,0.318 -1.615,0.318c-0.238,-0 -0.456,-0.023 -0.652,-0.07c-0.197,-0.047 -0.368,-0.103 -0.513,-0.171c-0.145,-0.067 -0.259,-0.142 -0.342,-0.225c-0.083,-0.083 -0.124,-0.155 -0.124,-0.217" style="fill:#fdfdff;fill-rule:nonzero;"/><path d="M24.522,8.479c-0.318,-0 -0.681,0.204 -1.09,0.612c-0.408,0.409 -0.795,0.947 -1.161,1.615c-0.366,0.669 -0.674,1.427 -0.923,2.276c-0.249,0.848 -0.374,1.708 -0.374,2.577c-0,0.287 0.077,0.518 0.231,0.693c0.153,0.175 0.358,0.262 0.612,0.262c0.446,0 0.876,-0.22 1.289,-0.66c0.414,-0.44 0.78,-1.008 1.098,-1.703c0.318,-0.694 0.573,-1.464 0.764,-2.307c0.191,-0.843 0.286,-1.668 0.286,-2.474c0,-0.287 -0.066,-0.507 -0.198,-0.661c-0.133,-0.153 -0.311,-0.23 -0.534,-0.23m0.064,-0.892c0.987,0 1.719,0.252 2.196,0.756c0.477,0.504 0.716,1.212 0.716,2.125c0,0.551 -0.074,1.108 -0.223,1.67c-0.148,0.563 -0.355,1.104 -0.62,1.623c-0.266,0.52 -0.581,1.006 -0.947,1.456c-0.366,0.451 -0.761,0.844 -1.186,1.178c-0.424,0.334 -0.87,0.597 -1.336,0.788c-0.467,0.19 -0.939,0.286 -1.416,0.286c-0.467,-0 -0.894,-0.08 -1.281,-0.239c-0.388,-0.159 -0.719,-0.384 -0.995,-0.676c-0.276,-0.292 -0.491,-0.647 -0.644,-1.066c-0.154,-0.419 -0.231,-0.894 -0.231,-1.424c-0,-0.764 0.148,-1.533 0.446,-2.308c0.296,-0.774 0.71,-1.469 1.241,-2.084c0.53,-0.615 1.161,-1.116 1.893,-1.504c0.732,-0.387 1.528,-0.581 2.387,-0.581" style="fill:#fdfdff;fill-rule:nonzero;"/><path d="M5.592,21.31c-0.084,0.01 -0.168,0.054 -0.253,0.135c-0.084,0.08 -0.159,0.175 -0.224,0.284c-0.066,0.11 -0.118,0.226 -0.154,0.347c-0.037,0.121 -0.05,0.226 -0.041,0.314c0.004,0.03 0.015,0.053 0.033,0.069c0.019,0.017 0.045,0.023 0.078,0.019c0.048,-0.005 0.097,-0.033 0.15,-0.083c0.052,-0.051 0.101,-0.114 0.149,-0.19c0.047,-0.076 0.092,-0.158 0.134,-0.247c0.042,-0.088 0.078,-0.172 0.108,-0.252c0.031,-0.08 0.054,-0.149 0.072,-0.209c0.018,-0.06 0.025,-0.101 0.023,-0.123c-0.006,-0.047 -0.03,-0.069 -0.075,-0.064m0.643,1.503c0.005,0.044 -0.02,0.069 -0.075,0.075c-0.111,0.012 -0.208,0.007 -0.292,-0.015c-0.085,-0.022 -0.155,-0.049 -0.211,-0.082c-0.055,-0.033 -0.099,-0.065 -0.13,-0.095c-0.031,-0.03 -0.053,-0.044 -0.064,-0.043c-0.018,0.002 -0.046,0.022 -0.085,0.06c-0.039,0.038 -0.092,0.08 -0.159,0.127c-0.067,0.046 -0.148,0.091 -0.242,0.133c-0.094,0.042 -0.203,0.07 -0.328,0.084c-0.14,0.016 -0.256,-0.016 -0.349,-0.095c-0.092,-0.079 -0.147,-0.196 -0.164,-0.35c-0.02,-0.18 0.002,-0.364 0.066,-0.552c0.065,-0.188 0.163,-0.36 0.294,-0.518c0.131,-0.158 0.291,-0.293 0.48,-0.403c0.189,-0.11 0.395,-0.178 0.619,-0.203c0.118,-0.013 0.229,-0.011 0.333,0.007c0.105,0.018 0.195,0.045 0.271,0.079c0.077,0.034 0.138,0.072 0.183,0.113c0.046,0.042 0.071,0.079 0.074,0.112c0.003,0.026 -0.013,0.078 -0.049,0.156c-0.036,0.079 -0.076,0.176 -0.118,0.293c-0.043,0.116 -0.079,0.248 -0.107,0.397c-0.028,0.148 -0.032,0.307 -0.013,0.476c0.004,0.04 0.01,0.073 0.016,0.098c0.007,0.026 0.014,0.046 0.021,0.062c0.007,0.016 0.014,0.03 0.019,0.043c0.005,0.012 0.008,0.026 0.01,0.041" style="fill:#e8485f;fill-rule:nonzero;"/><path d="M7.956,21.079c-0.085,0.01 -0.168,0.055 -0.25,0.134c-0.083,0.08 -0.155,0.175 -0.217,0.284c-0.062,0.11 -0.111,0.225 -0.146,0.346c-0.034,0.121 -0.047,0.226 -0.037,0.314c0.003,0.029 0.014,0.052 0.033,0.069c0.018,0.016 0.042,0.023 0.072,0.02c0.048,-0.006 0.097,-0.032 0.147,-0.081c0.051,-0.048 0.1,-0.11 0.147,-0.184c0.048,-0.074 0.094,-0.154 0.138,-0.239c0.044,-0.085 0.083,-0.167 0.115,-0.247c0.032,-0.08 0.056,-0.15 0.074,-0.212c0.017,-0.061 0.024,-0.105 0.021,-0.131c-0.006,-0.055 -0.038,-0.079 -0.097,-0.073m0.91,-0.051c-0.036,0.116 -0.072,0.23 -0.11,0.344c-0.037,0.114 -0.069,0.225 -0.097,0.332c-0.027,0.107 -0.047,0.209 -0.06,0.306c-0.014,0.096 -0.016,0.185 -0.007,0.266c0.005,0.047 0.011,0.085 0.018,0.112c0.007,0.027 0.014,0.05 0.022,0.067c0.007,0.018 0.014,0.033 0.019,0.046c0.005,0.012 0.008,0.026 0.01,0.04c0.005,0.045 -0.02,0.07 -0.075,0.076c-0.111,0.012 -0.207,0.007 -0.29,-0.015c-0.082,-0.023 -0.151,-0.05 -0.207,-0.083c-0.056,-0.033 -0.099,-0.064 -0.131,-0.094c-0.031,-0.03 -0.052,-0.045 -0.063,-0.044c-0.018,0.003 -0.05,0.023 -0.094,0.061c-0.044,0.039 -0.101,0.081 -0.172,0.128c-0.072,0.047 -0.153,0.092 -0.245,0.134c-0.092,0.042 -0.195,0.069 -0.309,0.082c-0.14,0.015 -0.26,-0.016 -0.36,-0.094c-0.1,-0.078 -0.158,-0.194 -0.175,-0.349c-0.021,-0.184 0.002,-0.369 0.069,-0.557c0.066,-0.188 0.16,-0.361 0.282,-0.518c0.122,-0.157 0.263,-0.288 0.422,-0.393c0.16,-0.105 0.322,-0.167 0.488,-0.186c0.106,-0.012 0.194,-0.006 0.264,0.018c0.07,0.024 0.108,0.036 0.116,0.035c0.011,-0.002 0.019,-0.008 0.025,-0.02c0.044,-0.142 0.085,-0.284 0.123,-0.424c0.038,-0.14 0.072,-0.27 0.102,-0.391c0.029,-0.12 0.051,-0.227 0.067,-0.32c0.016,-0.093 0.021,-0.163 0.016,-0.211c-0.007,-0.063 0.041,-0.1 0.143,-0.111c0.059,-0.007 0.121,0 0.187,0.021c0.066,0.02 0.126,0.048 0.182,0.083c0.056,0.034 0.104,0.074 0.145,0.118c0.04,0.043 0.062,0.084 0.066,0.121c0.005,0.04 -0.003,0.107 -0.022,0.2c-0.019,0.094 -0.047,0.205 -0.083,0.333c-0.036,0.129 -0.077,0.269 -0.123,0.422c-0.046,0.152 -0.094,0.307 -0.143,0.465" style="fill:#e8485f;fill-rule:nonzero;"/><path d="M9.527,19.949c-0.008,-0.07 -0.003,-0.14 0.015,-0.211c0.018,-0.071 0.047,-0.133 0.085,-0.188c0.039,-0.055 0.086,-0.101 0.141,-0.139c0.055,-0.037 0.116,-0.06 0.182,-0.067c0.096,-0.011 0.181,0.009 0.255,0.06c0.075,0.052 0.118,0.129 0.13,0.232c0.007,0.069 0.002,0.139 -0.016,0.208c-0.019,0.069 -0.046,0.131 -0.083,0.185c-0.037,0.054 -0.082,0.1 -0.135,0.138c-0.054,0.038 -0.112,0.06 -0.174,0.067c-0.096,0.011 -0.184,-0.009 -0.264,-0.06c-0.08,-0.051 -0.125,-0.126 -0.136,-0.225m-1.116,4.502c-0.173,0.019 -0.327,0.006 -0.462,-0.041c-0.136,-0.046 -0.251,-0.105 -0.347,-0.176c-0.095,-0.071 -0.17,-0.147 -0.223,-0.226c-0.054,-0.08 -0.083,-0.142 -0.088,-0.186c-0.003,-0.026 0.003,-0.047 0.018,-0.063c0.015,-0.017 0.034,-0.026 0.056,-0.029c0.018,-0.002 0.039,0.002 0.062,0.013c0.024,0.01 0.054,0.022 0.091,0.034c0.037,0.013 0.082,0.023 0.137,0.03c0.055,0.007 0.124,0.005 0.209,-0.004c0.209,-0.024 0.383,-0.091 0.522,-0.204c0.138,-0.112 0.251,-0.243 0.341,-0.392c0.089,-0.15 0.159,-0.306 0.21,-0.47c0.05,-0.164 0.091,-0.309 0.121,-0.435c0.024,-0.089 0.053,-0.209 0.088,-0.362c0.035,-0.153 0.07,-0.312 0.103,-0.478c0.034,-0.165 0.06,-0.325 0.08,-0.48c0.02,-0.155 0.025,-0.278 0.015,-0.37c-0.007,-0.063 0.041,-0.1 0.144,-0.111c0.081,-0.009 0.156,-0.004 0.225,0.016c0.069,0.021 0.13,0.048 0.182,0.083c0.053,0.035 0.093,0.075 0.123,0.121c0.029,0.045 0.045,0.086 0.05,0.122c0.006,0.059 0.005,0.111 -0.005,0.157c-0.01,0.046 -0.027,0.107 -0.052,0.185c-0.053,0.162 -0.1,0.352 -0.143,0.571c-0.042,0.219 -0.088,0.444 -0.136,0.677c-0.049,0.232 -0.106,0.465 -0.171,0.697c-0.065,0.233 -0.148,0.442 -0.248,0.628c-0.1,0.186 -0.223,0.342 -0.369,0.468c-0.146,0.126 -0.324,0.201 -0.533,0.225" style="fill:#e8485f;fill-rule:nonzero;"/><path d="M11.161,20.788c0.008,0.074 0.001,0.151 -0.021,0.231c-0.023,0.081 -0.047,0.163 -0.073,0.246c-0.027,0.083 -0.051,0.164 -0.074,0.242c-0.023,0.079 -0.03,0.154 -0.022,0.224c0.007,0.066 0.042,0.095 0.104,0.088c0.081,-0.009 0.158,-0.066 0.23,-0.171c0.072,-0.104 0.134,-0.23 0.186,-0.378c0.053,-0.147 0.091,-0.304 0.115,-0.47c0.024,-0.167 0.029,-0.314 0.015,-0.443c-0.007,-0.062 0.028,-0.098 0.105,-0.107c0.081,-0.009 0.161,-0.004 0.239,0.013c0.078,0.017 0.149,0.042 0.212,0.074c0.063,0.032 0.116,0.07 0.158,0.113c0.042,0.044 0.065,0.088 0.07,0.132c0.005,0.044 -0.008,0.113 -0.041,0.206c-0.032,0.093 -0.069,0.2 -0.109,0.322c-0.04,0.121 -0.074,0.25 -0.102,0.385c-0.028,0.135 -0.035,0.264 -0.021,0.385c0.005,0.048 0.011,0.085 0.018,0.112c0.007,0.027 0.014,0.049 0.021,0.065c0.007,0.016 0.014,0.03 0.019,0.042c0.005,0.013 0.009,0.028 0.011,0.047c0.004,0.044 -0.021,0.069 -0.076,0.075c-0.11,0.012 -0.206,0.007 -0.289,-0.015c-0.083,-0.022 -0.152,-0.05 -0.207,-0.083c-0.056,-0.033 -0.1,-0.064 -0.131,-0.094c-0.031,-0.03 -0.052,-0.045 -0.063,-0.043c-0.015,0.001 -0.043,0.021 -0.083,0.059c-0.04,0.038 -0.094,0.08 -0.159,0.127c-0.066,0.046 -0.144,0.09 -0.236,0.132c-0.093,0.042 -0.196,0.07 -0.309,0.082c-0.129,0.015 -0.243,-0.01 -0.341,-0.073c-0.098,-0.064 -0.155,-0.167 -0.171,-0.31c-0.011,-0.1 -0.001,-0.213 0.031,-0.342c0.033,-0.128 0.07,-0.261 0.112,-0.397c0.043,-0.137 0.08,-0.273 0.111,-0.406c0.032,-0.134 0.041,-0.256 0.029,-0.367c-0.007,-0.062 0.043,-0.099 0.149,-0.111c0.067,-0.008 0.134,-0.001 0.204,0.019c0.069,0.02 0.131,0.05 0.185,0.088c0.055,0.039 0.101,0.085 0.138,0.138c0.038,0.054 0.06,0.108 0.066,0.163" style="fill:#e8485f;fill-rule:nonzero;"/><path d="M14.364,20.374c0.004,0.037 -0.009,0.078 -0.039,0.125c-0.03,0.046 -0.067,0.09 -0.111,0.132c-0.044,0.042 -0.09,0.079 -0.138,0.11c-0.049,0.032 -0.09,0.049 -0.123,0.053c-0.029,0.003 -0.05,-0.003 -0.063,-0.018c-0.013,-0.015 -0.026,-0.043 -0.037,-0.082c-0.022,-0.057 -0.053,-0.111 -0.094,-0.16c-0.041,-0.049 -0.092,-0.071 -0.155,-0.064c-0.084,0.01 -0.122,0.055 -0.113,0.136c0.008,0.07 0.048,0.127 0.12,0.171c0.072,0.044 0.151,0.089 0.238,0.135c0.087,0.046 0.168,0.1 0.242,0.163c0.074,0.062 0.116,0.145 0.128,0.248c0.021,0.191 -0.041,0.356 -0.188,0.495c-0.146,0.139 -0.381,0.227 -0.704,0.263c-0.14,0.016 -0.266,0.014 -0.378,-0.005c-0.112,-0.019 -0.206,-0.048 -0.283,-0.086c-0.077,-0.038 -0.136,-0.08 -0.179,-0.128c-0.042,-0.047 -0.066,-0.089 -0.07,-0.126c-0.004,-0.04 0.008,-0.085 0.038,-0.135c0.03,-0.05 0.069,-0.098 0.118,-0.145c0.049,-0.046 0.101,-0.086 0.157,-0.12c0.055,-0.034 0.107,-0.054 0.155,-0.06c0.04,-0.004 0.068,0 0.082,0.014c0.015,0.013 0.027,0.03 0.037,0.051c0.029,0.094 0.074,0.167 0.136,0.22c0.062,0.052 0.124,0.075 0.186,0.068c0.033,-0.004 0.06,-0.017 0.08,-0.04c0.019,-0.022 0.028,-0.048 0.024,-0.078c-0.009,-0.088 -0.053,-0.157 -0.129,-0.206c-0.076,-0.049 -0.159,-0.096 -0.25,-0.142c-0.091,-0.046 -0.175,-0.097 -0.252,-0.153c-0.077,-0.057 -0.121,-0.137 -0.133,-0.239c-0.01,-0.092 0.006,-0.179 0.05,-0.26c0.043,-0.081 0.107,-0.154 0.193,-0.22c0.085,-0.065 0.188,-0.119 0.308,-0.163c0.12,-0.043 0.25,-0.072 0.389,-0.088c0.114,-0.013 0.217,-0.011 0.308,0.005c0.091,0.016 0.169,0.04 0.234,0.071c0.065,0.032 0.116,0.071 0.153,0.117c0.036,0.046 0.058,0.093 0.063,0.141" style="fill:#e8485f;fill-rule:nonzero;"/><path d="M14.747,20.454c-0.03,0.003 -0.065,0.005 -0.106,0.004c-0.041,-0.001 -0.063,-0.02 -0.068,-0.057c-0.001,-0.015 0.002,-0.039 0.009,-0.073c0.007,-0.035 0.017,-0.07 0.03,-0.107c0.013,-0.037 0.026,-0.072 0.041,-0.105c0.015,-0.033 0.031,-0.06 0.047,-0.081c0.027,-0.029 0.055,-0.048 0.086,-0.057c0.03,-0.009 0.066,-0.016 0.106,-0.02c0.054,-0.185 0.1,-0.352 0.137,-0.501c0.037,-0.149 0.052,-0.259 0.044,-0.329c-0.006,-0.059 0.042,-0.094 0.145,-0.105c0.058,-0.007 0.121,0 0.186,0.021c0.066,0.02 0.127,0.048 0.183,0.083c0.056,0.034 0.103,0.073 0.144,0.115c0.04,0.042 0.062,0.083 0.066,0.123c0.005,0.041 -0.006,0.104 -0.031,0.191c-0.026,0.087 -0.056,0.191 -0.091,0.314c0.114,-0.012 0.19,-0.025 0.228,-0.036c0.038,-0.012 0.071,-0.019 0.101,-0.023c0.036,-0.004 0.057,0.014 0.062,0.055c0.005,0.051 0.002,0.104 -0.011,0.157c-0.012,0.054 -0.038,0.104 -0.078,0.151c-0.039,0.048 -0.095,0.089 -0.167,0.125c-0.073,0.036 -0.164,0.06 -0.274,0.073c-0.029,0.077 -0.063,0.182 -0.104,0.315c-0.041,0.133 -0.08,0.27 -0.116,0.41c-0.037,0.14 -0.067,0.27 -0.091,0.39c-0.024,0.119 -0.033,0.205 -0.027,0.257c0.005,0.04 0.001,0.073 -0.011,0.099c-0.012,0.025 -0.04,0.04 -0.084,0.045c-0.063,0.007 -0.131,0.01 -0.203,0.009c-0.073,-0.001 -0.141,-0.009 -0.204,-0.022c-0.063,-0.013 -0.116,-0.034 -0.16,-0.063c-0.044,-0.029 -0.069,-0.068 -0.075,-0.12c-0.007,-0.059 0.006,-0.149 0.037,-0.269c0.031,-0.121 0.065,-0.246 0.103,-0.375c0.038,-0.129 0.073,-0.249 0.105,-0.36c0.032,-0.112 0.046,-0.19 0.041,-0.234" style="fill:#e8485f;fill-rule:nonzero;"/><path d="M19.414,19.759c0.011,0.096 -0.001,0.2 -0.035,0.311c-0.034,0.112 -0.073,0.23 -0.116,0.354c-0.044,0.124 -0.082,0.253 -0.114,0.387c-0.031,0.133 -0.04,0.266 -0.025,0.399c0.016,0.14 0.071,0.251 0.166,0.336c0.095,0.084 0.227,0.117 0.396,0.098c0.085,-0.01 0.148,-0.027 0.19,-0.052c0.042,-0.025 0.076,-0.039 0.101,-0.042c0.045,-0.005 0.069,0.014 0.074,0.059c0.003,0.029 -0.013,0.072 -0.05,0.128c-0.036,0.056 -0.092,0.115 -0.167,0.178c-0.075,0.062 -0.168,0.119 -0.28,0.171c-0.111,0.051 -0.24,0.085 -0.387,0.102c-0.114,0.012 -0.224,0.006 -0.329,-0.02c-0.105,-0.025 -0.199,-0.067 -0.282,-0.124c-0.083,-0.058 -0.151,-0.13 -0.206,-0.217c-0.054,-0.087 -0.087,-0.186 -0.1,-0.296c-0.018,-0.162 -0.008,-0.318 0.029,-0.47c0.037,-0.151 0.081,-0.29 0.132,-0.416c0.051,-0.127 0.098,-0.239 0.141,-0.337c0.043,-0.098 0.061,-0.174 0.055,-0.23c-0.006,-0.055 -0.039,-0.079 -0.097,-0.072c-0.041,0.004 -0.099,0.033 -0.175,0.086c-0.076,0.053 -0.147,0.147 -0.214,0.281c-0.04,0.079 -0.078,0.169 -0.115,0.27c-0.037,0.1 -0.069,0.201 -0.095,0.3c-0.026,0.1 -0.045,0.194 -0.058,0.283c-0.012,0.089 -0.015,0.163 -0.008,0.222c0.004,0.04 0.001,0.073 -0.009,0.098c-0.01,0.026 -0.037,0.041 -0.081,0.046c-0.067,0.007 -0.134,0.01 -0.203,0.008c-0.069,-0.001 -0.134,-0.009 -0.195,-0.022c-0.061,-0.014 -0.112,-0.035 -0.153,-0.064c-0.04,-0.029 -0.063,-0.069 -0.069,-0.121c-0.009,-0.077 0,-0.174 0.026,-0.29c0.026,-0.117 0.056,-0.234 0.089,-0.351c0.034,-0.117 0.065,-0.225 0.093,-0.323c0.028,-0.098 0.039,-0.169 0.034,-0.213c-0.006,-0.055 -0.04,-0.079 -0.102,-0.072c-0.041,0.004 -0.084,0.026 -0.13,0.064c-0.046,0.039 -0.102,0.125 -0.169,0.259c-0.039,0.083 -0.08,0.176 -0.123,0.279c-0.042,0.104 -0.08,0.207 -0.113,0.312c-0.033,0.104 -0.059,0.203 -0.078,0.296c-0.02,0.093 -0.026,0.169 -0.019,0.228c0.004,0.041 0.001,0.073 -0.009,0.099c-0.01,0.025 -0.037,0.04 -0.081,0.045c-0.067,0.008 -0.136,0.011 -0.209,0.009c-0.072,-0.001 -0.14,-0.008 -0.203,-0.021c-0.063,-0.014 -0.117,-0.035 -0.161,-0.063c-0.044,-0.029 -0.069,-0.069 -0.074,-0.12c-0.012,-0.1 0.001,-0.223 0.036,-0.37c0.036,-0.147 0.077,-0.3 0.125,-0.458c0.047,-0.158 0.089,-0.313 0.124,-0.466c0.035,-0.153 0.046,-0.284 0.034,-0.395c-0.007,-0.062 0.041,-0.099 0.144,-0.111c0.121,-0.013 0.219,-0.005 0.293,0.023c0.073,0.029 0.13,0.064 0.17,0.104c0.04,0.04 0.067,0.078 0.08,0.114c0.013,0.036 0.024,0.053 0.031,0.052c0.007,-0 0.028,-0.021 0.063,-0.062c0.034,-0.041 0.08,-0.088 0.138,-0.139c0.057,-0.051 0.127,-0.099 0.21,-0.146c0.082,-0.046 0.176,-0.075 0.283,-0.087c0.11,-0.013 0.201,-0.004 0.273,0.025c0.073,0.029 0.13,0.063 0.174,0.103c0.043,0.04 0.075,0.078 0.093,0.113c0.019,0.035 0.032,0.052 0.04,0.051c0.003,-0 0.024,-0.021 0.062,-0.063c0.038,-0.041 0.09,-0.088 0.155,-0.14c0.065,-0.052 0.141,-0.101 0.229,-0.148c0.088,-0.047 0.185,-0.077 0.292,-0.089c0.139,-0.015 0.248,0.006 0.325,0.064c0.077,0.059 0.122,0.143 0.134,0.253" style="fill:#e8485f;fill-rule:nonzero;"/><path d="M20.873,19.601c-0.044,0.005 -0.092,0.027 -0.144,0.067c-0.051,0.039 -0.101,0.09 -0.15,0.153c-0.049,0.064 -0.091,0.135 -0.127,0.215c-0.035,0.081 -0.059,0.164 -0.072,0.251c0.085,-0.035 0.166,-0.079 0.242,-0.13c0.076,-0.051 0.141,-0.105 0.194,-0.161c0.053,-0.056 0.095,-0.111 0.124,-0.165c0.03,-0.053 0.042,-0.102 0.037,-0.146c-0.007,-0.063 -0.042,-0.09 -0.104,-0.084m-0.162,1.152c0.092,-0.01 0.17,-0.032 0.236,-0.066c0.065,-0.033 0.118,-0.069 0.161,-0.107c0.042,-0.038 0.076,-0.072 0.103,-0.101c0.026,-0.029 0.051,-0.045 0.073,-0.047c0.022,-0.002 0.043,0.004 0.063,0.021c0.021,0.016 0.033,0.037 0.035,0.063c0.003,0.026 -0.012,0.078 -0.046,0.156c-0.034,0.078 -0.094,0.161 -0.179,0.249c-0.085,0.087 -0.199,0.17 -0.341,0.247c-0.142,0.077 -0.322,0.128 -0.538,0.152c-0.096,0.011 -0.187,0.007 -0.272,-0.011c-0.086,-0.018 -0.163,-0.051 -0.232,-0.097c-0.068,-0.046 -0.125,-0.107 -0.171,-0.182c-0.045,-0.075 -0.074,-0.162 -0.085,-0.261c-0.019,-0.169 0.005,-0.341 0.071,-0.516c0.066,-0.175 0.163,-0.334 0.29,-0.479c0.127,-0.144 0.276,-0.266 0.447,-0.365c0.172,-0.1 0.351,-0.16 0.538,-0.181c0.107,-0.012 0.199,-0.009 0.278,0.008c0.078,0.018 0.142,0.044 0.193,0.079c0.05,0.036 0.089,0.078 0.117,0.127c0.028,0.049 0.045,0.101 0.051,0.156c0.012,0.107 -0.015,0.212 -0.082,0.316c-0.066,0.104 -0.154,0.201 -0.263,0.289c-0.11,0.089 -0.231,0.168 -0.364,0.239c-0.134,0.071 -0.262,0.124 -0.384,0.16c0.046,0.118 0.147,0.168 0.301,0.151" style="fill:#e8485f;fill-rule:nonzero;"/><path d="M23.069,19.546c-0.006,-0.059 -0.039,-0.085 -0.098,-0.078c-0.04,0.004 -0.097,0.041 -0.172,0.111c-0.074,0.07 -0.144,0.172 -0.211,0.306c-0.039,0.082 -0.078,0.173 -0.117,0.272c-0.04,0.1 -0.074,0.198 -0.104,0.297c-0.03,0.098 -0.053,0.191 -0.069,0.278c-0.017,0.088 -0.022,0.161 -0.015,0.219c0.005,0.041 0.002,0.074 -0.009,0.099c-0.01,0.025 -0.037,0.041 -0.081,0.046c-0.066,0.007 -0.136,0.01 -0.208,0.009c-0.073,-0.001 -0.141,-0.009 -0.204,-0.022c-0.063,-0.013 -0.116,-0.034 -0.16,-0.063c-0.044,-0.029 -0.069,-0.069 -0.075,-0.12c-0.011,-0.099 0.001,-0.223 0.037,-0.37c0.035,-0.147 0.077,-0.3 0.124,-0.458c0.048,-0.157 0.089,-0.313 0.124,-0.466c0.035,-0.152 0.047,-0.284 0.034,-0.394c-0.007,-0.063 0.041,-0.1 0.144,-0.111c0.121,-0.014 0.219,-0.003 0.294,0.031c0.074,0.035 0.132,0.075 0.172,0.12c0.041,0.046 0.068,0.09 0.082,0.131c0.014,0.041 0.025,0.061 0.032,0.06c0.004,0 0.027,-0.024 0.07,-0.072c0.043,-0.047 0.101,-0.1 0.175,-0.159c0.073,-0.058 0.16,-0.114 0.26,-0.168c0.1,-0.054 0.213,-0.088 0.338,-0.102c0.139,-0.016 0.248,0.005 0.325,0.064c0.077,0.058 0.122,0.143 0.134,0.253c0.011,0.095 -0.002,0.199 -0.037,0.311c-0.036,0.112 -0.075,0.23 -0.117,0.354c-0.042,0.123 -0.08,0.252 -0.113,0.386c-0.034,0.134 -0.043,0.267 -0.028,0.4c0.015,0.14 0.072,0.251 0.169,0.335c0.096,0.085 0.229,0.117 0.398,0.098c0.085,-0.009 0.148,-0.027 0.19,-0.052c0.042,-0.025 0.074,-0.039 0.096,-0.041c0.048,-0.005 0.074,0.014 0.079,0.058c0.003,0.029 -0.013,0.072 -0.05,0.128c-0.036,0.057 -0.092,0.116 -0.167,0.178c-0.075,0.063 -0.168,0.12 -0.28,0.171c-0.111,0.052 -0.24,0.086 -0.387,0.102c-0.118,0.013 -0.229,0.007 -0.335,-0.018c-0.105,-0.026 -0.198,-0.068 -0.279,-0.126c-0.081,-0.057 -0.148,-0.13 -0.203,-0.217c-0.054,-0.087 -0.087,-0.185 -0.1,-0.296c-0.018,-0.161 -0.009,-0.32 0.025,-0.474c0.035,-0.155 0.078,-0.297 0.128,-0.428c0.051,-0.13 0.097,-0.246 0.137,-0.347c0.041,-0.102 0.059,-0.18 0.052,-0.235" style="fill:#e8485f;fill-rule:nonzero;"/><path d="M24.269,19.39c-0.03,0.003 -0.065,0.004 -0.106,0.003c-0.041,-0.001 -0.064,-0.02 -0.068,-0.057c-0.001,-0.014 0.002,-0.039 0.009,-0.073c0.007,-0.034 0.017,-0.07 0.03,-0.107c0.013,-0.036 0.026,-0.071 0.041,-0.105c0.015,-0.033 0.031,-0.06 0.047,-0.08c0.027,-0.029 0.055,-0.048 0.086,-0.057c0.03,-0.009 0.066,-0.016 0.106,-0.021c0.054,-0.184 0.1,-0.351 0.137,-0.501c0.037,-0.149 0.052,-0.259 0.044,-0.328c-0.006,-0.059 0.042,-0.094 0.145,-0.106c0.058,-0.006 0.121,0.001 0.186,0.021c0.066,0.021 0.127,0.048 0.183,0.083c0.056,0.035 0.103,0.073 0.144,0.115c0.04,0.042 0.062,0.083 0.066,0.124c0.005,0.04 -0.006,0.104 -0.031,0.19c-0.026,0.087 -0.056,0.192 -0.091,0.315c0.114,-0.013 0.19,-0.025 0.228,-0.037c0.038,-0.012 0.071,-0.019 0.101,-0.022c0.036,-0.004 0.057,0.014 0.062,0.054c0.005,0.052 0.002,0.104 -0.011,0.158c-0.012,0.053 -0.038,0.104 -0.078,0.151c-0.039,0.047 -0.095,0.089 -0.167,0.125c-0.073,0.036 -0.164,0.06 -0.274,0.072c-0.029,0.078 -0.063,0.183 -0.104,0.316c-0.041,0.133 -0.08,0.269 -0.116,0.409c-0.037,0.14 -0.067,0.27 -0.091,0.39c-0.024,0.12 -0.033,0.206 -0.027,0.257c0.005,0.041 0.001,0.073 -0.011,0.099c-0.012,0.026 -0.04,0.041 -0.084,0.046c-0.063,0.007 -0.131,0.01 -0.203,0.008c-0.073,-0.001 -0.141,-0.008 -0.204,-0.022c-0.063,-0.013 -0.116,-0.034 -0.16,-0.063c-0.044,-0.028 -0.069,-0.068 -0.075,-0.12c-0.007,-0.058 0.006,-0.148 0.037,-0.269c0.031,-0.121 0.065,-0.245 0.103,-0.374c0.038,-0.129 0.073,-0.249 0.105,-0.361c0.032,-0.111 0.046,-0.189 0.041,-0.233" style="fill:#e8485f;fill-rule:nonzero;"/><path d="M27.354,18.922c0.004,0.037 -0.009,0.078 -0.039,0.124c-0.03,0.047 -0.067,0.091 -0.111,0.133c-0.044,0.042 -0.09,0.079 -0.138,0.11c-0.049,0.032 -0.09,0.049 -0.123,0.053c-0.029,0.003 -0.05,-0.003 -0.063,-0.018c-0.013,-0.015 -0.026,-0.043 -0.037,-0.083c-0.022,-0.057 -0.053,-0.11 -0.094,-0.159c-0.041,-0.05 -0.092,-0.071 -0.155,-0.064c-0.084,0.009 -0.122,0.055 -0.113,0.135c0.008,0.07 0.048,0.127 0.12,0.171c0.072,0.044 0.151,0.09 0.238,0.136c0.087,0.046 0.168,0.1 0.242,0.162c0.074,0.063 0.116,0.146 0.128,0.248c0.021,0.192 -0.041,0.357 -0.188,0.496c-0.146,0.139 -0.381,0.227 -0.704,0.263c-0.14,0.016 -0.266,0.014 -0.378,-0.005c-0.112,-0.019 -0.206,-0.048 -0.283,-0.086c-0.077,-0.038 -0.136,-0.08 -0.179,-0.128c-0.042,-0.047 -0.066,-0.089 -0.07,-0.126c-0.004,-0.04 0.008,-0.085 0.038,-0.135c0.03,-0.05 0.069,-0.098 0.118,-0.145c0.049,-0.046 0.101,-0.086 0.157,-0.121c0.055,-0.034 0.107,-0.053 0.155,-0.059c0.04,-0.004 0.068,0 0.082,0.013c0.015,0.014 0.027,0.031 0.037,0.052c0.029,0.094 0.074,0.167 0.136,0.219c0.062,0.053 0.124,0.076 0.186,0.069c0.033,-0.004 0.06,-0.017 0.08,-0.04c0.019,-0.022 0.028,-0.048 0.024,-0.078c-0.01,-0.088 -0.053,-0.157 -0.129,-0.206c-0.076,-0.049 -0.159,-0.097 -0.25,-0.142c-0.091,-0.046 -0.175,-0.097 -0.252,-0.154c-0.077,-0.056 -0.121,-0.136 -0.133,-0.239c-0.01,-0.092 0.007,-0.178 0.05,-0.259c0.043,-0.081 0.107,-0.155 0.193,-0.22c0.085,-0.065 0.188,-0.12 0.308,-0.163c0.12,-0.043 0.25,-0.072 0.389,-0.088c0.114,-0.013 0.217,-0.011 0.308,0.005c0.091,0.016 0.169,0.039 0.234,0.071c0.065,0.032 0.116,0.071 0.153,0.117c0.036,0.046 0.058,0.093 0.063,0.141" style="fill:#e8485f;fill-rule:nonzero;"/><defs><radialGradient id="_Radial1" cx="0" cy="0" r="1" gradientUnits="userSpaceOnUse" gradientTransform="matrix(16,0,0,16,15.8778,16)"><stop offset="0" style="stop-color:#434557;stop-opacity:1"/><stop offset="1" style="stop-color:#292a3f;stop-opacity:1"/></radialGradient></defs></svg>